<svg width="89" height="65" viewBox="0 0 89 65" fill="none" xmlns="http://www.w3.org/2000/svg">
<path d="M87.1401 10.6764C86.1166 6.74441 83.1007 3.64812 79.2712 2.59728C72.3312 0.6875 44.5 0.6875 44.5 0.6875C44.5 0.6875 16.6688 0.6875 9.72831 2.59728C5.89878 3.64812 2.88289 6.74441 1.85939 10.6764C0 17.8028 0 32.6719 0 32.6719C0 32.6719 0 47.5405 1.85939 54.6673C2.88289 58.5993 5.89878 61.6956 9.72831 62.747C16.6688 64.6562 44.5 64.6562 44.5 64.6562C44.5 64.6562 72.3312 64.6562 79.2712 62.747C83.1007 61.6956 86.1166 58.5993 87.1401 54.6673C89 47.5405 89 32.6719 89 32.6719C89 32.6719 89 17.8028 87.1401 10.6764Z" fill="#FF0000"/>
<path d="M36.1564 47.9686V20.1561L58.4064 34.0629L36.1564 47.9686Z" fill="white"/>
</svg>
